<?xml version="1.0" encoding="UTF-8" standalone="no"?>
<svg
   xmlns:dc="http://purl.org/dc/elements/1.1/"
   xmlns:cc="http://web.resource.org/cc/"
   xmlns:rdf="http://www.w3.org/1999/02/22-rdf-syntax-ns#"
   xmlns:svg="http://www.w3.org/2000/svg"
   xmlns="http://www.w3.org/2000/svg"
   xmlns:sodipodi="http://sodipodi.sourceforge.net/DTD/sodipodi-0.dtd"
   xmlns:inkscape="http://www.inkscape.org/namespaces/inkscape"
   version="1.1"
   width="129.71mm"
   height="75.22mm"
   viewBox="0 0 129.71 75.22"
   fill-rule="nonzero"
   stroke-miterlimit="10"
   style="font-family: 'Times New Roman'; font-weight:normal"
   id="svg2"
   sodipodi:version="0.32"
   inkscape:version="0.45"
   sodipodi:docname="USApolitique.svg"
   inkscape:output_extension="org.inkscape.output.svg.inkscape"
   sodipodi:docbase="D:\LAURENT"
   sodipodi:modified="true">
  <metadata
     id="metadata143">
    <rdf:RDF>
      <cc:Work
         rdf:about="">
        <dc:format>image/svg+xml</dc:format>
        <dc:type
           rdf:resource="http://purl.org/dc/dcmitype/StillImage" />
      </cc:Work>
    </rdf:RDF>
  </metadata>
  <sodipodi:namedview
     inkscape:window-height="480"
     inkscape:window-width="640"
     inkscape:pageshadow="2"
     inkscape:pageopacity="0.0"
     guidetolerance="10.0"
     gridtolerance="10.0"
     objecttolerance="10.0"
     borderopacity="1.0"
     bordercolor="#666666"
     pagecolor="#ffffff"
     id="base" />
<!--Exported from TpX drawing-->  <title
     id="title4" />
  <desc
     id="desc6">Imported from usa.wmf 25/05/2008 18:05:02</desc>
  <defs
     id="defs8" />
  <polyline
     stroke="black"
     stroke-width="0.07"
     fill="none"
     points="98.47,56.11 94.40,55.95 92.58,55.95 92.74,57.28 91.93,57.34 91.93,56.68 91.50,56.45 91.33,57.41 90.66,57.37 90.42,55.54 90.49,45.55 95.90,45.05 97.89,51.87 97.56,53.21 98.06,54.04 97.89,55.11 98.39,55.87 98.47,56.11"
     id="polyline10"
     style="stroke-width:0.28222222;stroke-miterlimit:10;stroke-dasharray:none" />
  <polyline
     stroke="black"
     stroke-width="0.07"
     fill="none"
     points="27.33,54.91 27.66,58.32 27.83,62.57 27.92,64.57 28.75,64.64 29.66,65.23 29.99,65.73 30.16,65.73 30.49,65.14 30.99,65.40 30.99,65.64 30.58,65.73 30.32,65.90 30.41,66.14 30.58,66.23 30.91,66.06 31.15,65.81 31.41,65.64 31.91,65.90 32.07,66.31 32.41,66.56 32.90,66.90 33.24,67.39 33.31,67.73 34.23,67.89 34.40,69.14 34.07,68.97 33.57,68.30 33.31,68.30 33.15,67.80 32.82,67.73 32.74,67.64 32.57,67.06 32.32,66.81 31.98,66.64 31.74,67.14 31.82,67.47 32.15,67.56 32.41,67.73 32.07,68.30 31.82,68.23 31.58,67.80 31.15,67.39 31.08,66.81 30.66,66.40 29.99,66.14 29.66,65.90 29.16,65.56 28.09,65.14 27.33,65.06 26.42,65.06 26.09,64.98 25.50,64.14 25.10,63.98 24.60,64.07 24.60,64.40 24.67,64.90 24.51,64.98 24.01,64.98 23.35,65.48 23.01,65.73 22.60,65.64 22.68,65.23 23.10,64.98 23.10,64.48 23.18,63.90 23.01,63.81 22.44,64.48 21.94,64.98 21.61,65.48 21.52,65.64 21.85,65.81 21.77,66.06 21.11,66.56 20.61,67.06 19.78,67.56 18.95,67.89 18.28,68.23 17.78,68.47 17.53,68.06 17.78,67.73 18.28,67.47 19.03,66.97 19.36,66.56 19.52,66.06 19.61,65.73 19.19,65.64 19.28,65.31 18.86,65.40  18.62,65.14 18.28,65.23 18.03,65.31 17.78,65.81 17.36,65.14 17.62,64.57 17.36,63.73 16.87,63.98 16.46,63.15 16.46,62.40 16.12,61.65 16.87,61.48 16.79,60.98 17.20,60.65 18.78,60.82 19.03,60.65 19.03,59.57 18.95,59.41 18.19,59.48 18.12,59.07 17.53,59.41 17.53,58.99 16.70,58.82 16.79,58.41 17.03,58.08 16.70,57.65 17.20,57.58 17.53,57.41 17.95,57.41 18.19,57.16 18.45,57.41 18.28,57.74 18.19,58.08 18.78,57.99 19.36,57.82 19.69,57.32 19.28,57.24 18.69,56.41 18.28,55.75 18.28,55.16 18.69,54.99 19.19,54.75 19.61,54.91 20.28,53.75 21.02,53.83 21.68,53.66 22.27,53.42 22.85,53.83 23.43,54.08 24.34,54.33 26.59,54.83 27.09,54.99 27.26,55.49 27.33,54.91"
     id="polyline12"
     style="stroke-width:0.28222222;stroke-miterlimit:10;stroke-dasharray:none" />
  <polyline
     stroke="black"
     stroke-width="0.07"
     fill="none"
     points="13.21,69.56 13.54,69.14 13.38,68.64 13.04,68.80 12.80,69.39 12.38,69.39"
     id="polyline14"
     style="stroke-width:0.28222222;stroke-miterlimit:10;stroke-dasharray:none" />
  <polyline
     stroke="black"
     stroke-width="0.07"
     fill="none"
     points="15.46,68.56 15.13,68.80"
     id="polyline16"
     style="stroke-width:0.28222222;stroke-miterlimit:10;stroke-dasharray:none" />
  <polyline
     stroke="black"
     stroke-width="0.07"
     fill="none"
     points="22.44,66.56 22.44,67.23 22.02,67.56 21.27,67.73 21.11,67.39 21.44,67.14 21.94,66.97 22.10,66.47 22.35,66.47"
     id="polyline18"
     style="stroke-width:0.28222222;stroke-miterlimit:10;stroke-dasharray:none" />
  <polyline
     stroke="black"
     stroke-width="0.07"
     fill="none"
     points="2.58,64.81 2.00,64.14"
     id="polyline20"
     style="stroke-width:0.28222222;stroke-miterlimit:10;stroke-dasharray:none" />
  <polyline
     stroke="black"
     stroke-width="0.07"
     fill="none"
     points="7.32,68.80 7.15,68.89"
     id="polyline22"
     style="stroke-width:0.28222222;stroke-miterlimit:10;stroke-dasharray:none" />
  <polyline
     stroke="black"
     stroke-width="0.07"
     fill="none"
     points="8.65,69.30 8.23,69.06"
     id="polyline24"
     style="stroke-width:0.28222222;stroke-miterlimit:10;stroke-dasharray:none" />
  <polyline
     stroke="black"
     stroke-width="0.07"
     fill="none"
     points="5.99,68.23 5.40,67.73"
     id="polyline26"
     style="stroke-width:0.28222222;stroke-miterlimit:10;stroke-dasharray:none" />
  <polyline
     stroke="black"
     stroke-width="0.07"
     fill="none"
     points="4.49,67.14 3.91,66.81 3.99,66.81"
     id="polyline28"
     style="stroke-width:0.28222222;stroke-miterlimit:10;stroke-dasharray:none" />
  <polyline
     stroke="black"
     stroke-width="0.07"
     fill="none"
     points="4.66,67.89 4.40,67.64"
     id="polyline30"
     style="stroke-width:0.28222222;stroke-miterlimit:10;stroke-dasharray:none" />
  <polyline
     stroke="black"
     stroke-width="0.07"
     fill="none"
     points="32.79,41.90 32.67,42.39 33.09,42.89 33.26,43.63 33.42,44.05 33.17,44.72 32.26,45.30 32.34,45.55 31.93,46.13 31.84,46.55 31.84,47.71 31.84,48.79 34.83,50.92 36.33,51.92 38.15,53.16 43.63,53.77 45.93,38.94 35.06,37.13 34.59,39.56 34.26,39.89 33.67,39.40 33.17,39.81 33.00,41.80 32.79,41.90"
     id="polyline32"
     style="stroke-width:0.28222222;stroke-miterlimit:10;stroke-dasharray:none" />
  <polyline
     stroke="black"
     stroke-width="0.07"
     fill="none"
     points="86.67,43.30 85.67,43.47 85.26,43.13 85.51,42.72 85.76,41.80 76.20,42.22 76.54,49.96 77.12,49.98 77.37,51.54 83.94,51.29 84.01,51.04 83.94,50.12 84.01,49.21 84.60,48.21 85.34,47.29 85.01,46.46 85.67,45.96 85.83,45.45 86.43,44.89 86.76,43.63 86.67,43.30"
     id="polyline34"
     style="stroke-width:0.28222222;stroke-miterlimit:10;stroke-dasharray:none" />
  <polyline
     stroke="black"
     stroke-width="0.07"
     fill="none"
     points="31.84,47.71 31.84,46.55 31.93,46.13 32.34,45.55 32.26,45.30 33.17,44.72 33.42,44.05 33.26,43.63 33.09,42.89 32.67,42.39 32.99,41.76 27.69,33.98 24.53,28.82 26.55,21.28 18.54,19.23 18.18,19.47 18.35,19.97 18.35,20.30 17.26,22.13 16.85,22.80 16.85,23.80 17.26,24.30 17.35,25.87 17.19,27.20 17.43,28.29 17.93,29.12 18.02,30.45 18.85,30.45 18.93,30.12 19.35,30.29 19.35,30.62 19.01,30.79 18.93,31.20 18.93,31.53 18.59,31.45 18.18,32.03 18.68,32.62 19.18,33.78 18.93,34.28 18.59,34.61 19.18,36.11 19.51,36.78 19.92,37.85 20.34,38.77 20.34,39.61 20.18,40.27 20.09,40.44 20.84,40.68 21.25,41.18 21.75,41.10 22.17,41.18 22.58,41.51 22.75,41.94 22.91,42.43 23.58,42.51 24.16,42.85 24.41,43.18 24.83,43.77 25.16,44.26 25.49,44.76 25.99,44.84 26.07,45.01 26.24,45.51 26.32,46.34 26.40,47.00 26.90,47.43 27.40,47.50 27.90,47.59 29.39,47.93 30.48,48.09 31.22,48.00 31.84,47.71"
     id="polyline36"
     style="stroke-width:0.28222222;stroke-miterlimit:10;stroke-dasharray:none" />
  <polyline
     stroke="black"
     stroke-width="0.07"
     fill="none"
     points="47.15,28.16 56.97,29.24 61.01,29.58 60.41,40.25 58.18,40.19 45.96,38.97 47.15,28.16"
     id="polyline38"
     style="stroke-width:0.28222222;stroke-miterlimit:10;stroke-dasharray:none" />
  <polyline
     stroke="black"
     stroke-width="0.07"
     fill="none"
     points="120.82,22.50 120.82,21.09 117.38,22.27 117.36,24.47 117.25,26.06 117.66,24.87 118.00,24.30 119.24,23.30 119.99,23.13 120.73,22.97 120.82,22.50"
     id="polyline40"
     style="stroke-width:0.28222222;stroke-miterlimit:10;stroke-dasharray:none" />
  <polyline
     stroke="black"
     stroke-width="0.07"
     fill="none"
     points="117.31,31.22 116.62,31.29 115.74,30.68 115.54,29.85 115.09,28.48 114.15,28.71 114.92,31.91 116.67,31.91 117.31,31.22"
     id="polyline42"
     style="stroke-width:0.28222222;stroke-miterlimit:10;stroke-dasharray:none" />
  <polyline
     stroke="black"
     stroke-width="0.07"
     fill="none"
     points="97.30,58.24 96.31,57.82 95.40,57.24 94.48,57.16 93.48,57.74 92.79,57.74 92.74,57.28 92.58,55.95 94.40,55.95 98.45,56.11 98.52,56.67 104.77,56.64 104.96,56.86 105.31,56.86 105.11,54.95 106.68,55.15 107.03,56.32 107.86,57.82 108.36,58.99 109.69,61.15 110.19,62.40 111.18,63.90 111.76,64.73 111.85,66.81 111.59,67.89 111.43,68.39 111.35,68.80 110.52,69.39 109.93,69.39 109.52,69.06 109.27,68.56 108.77,68.06 108.03,67.39 107.20,66.90 107.20,66.31 106.78,65.81 106.78,65.06 106.20,65.23 105.53,64.64 105.11,64.14 105.20,63.64 105.37,63.15 105.28,62.40 104.95,62.57 104.70,62.98 104.62,61.65 104.70,60.65 104.54,59.82 103.62,59.24 102.71,58.65 101.96,58.24 101.05,57.82 100.05,57.41 99.72,57.91 99.22,58.41 98.39,58.32 97.30,58.24"
     id="polyline44"
     style="stroke-width:0.28222222;stroke-miterlimit:10;stroke-dasharray:none" />
  <polyline
     stroke="black"
     stroke-width="0.07"
     fill="none"
     points="106.44,50.79 106.03,50.21 105.37,49.21 104.21,47.71 103.29,47.63 102.12,46.13 101.71,45.72 101.13,45.63 100.72,45.22 101.05,44.46 98.39,44.80 95.90,45.05 97.89,51.87 97.56,53.21 98.06,54.04 97.90,55.10 98.35,55.69 98.56,56.73 98.65,56.67 104.78,56.64 105.01,56.88 105.29,56.88 105.11,54.95 106.70,55.16 106.44,54.49 106.61,52.83 106.94,52.66 107.11,52.33 106.61,52.25 108.20,51.09 107.25,50.63 106.44,50.79"
     id="polyline46"
     style="stroke-width:0.28222222;stroke-miterlimit:10;stroke-dasharray:none" />
  <polyline
     stroke="black"
     stroke-width="0.07"
     fill="none"
     points="47.22,66.32 47.55,65.99 47.22,65.56 46.38,65.56 46.30,65.99 47.13,66.23 47.22,66.32"
     id="polyline48"
     style="stroke-width:0.28222222;stroke-miterlimit:10;stroke-dasharray:none" />
  <polyline
     stroke="black"
     stroke-width="0.07"
     fill="none"
     points="52.37,67.82 51.45,67.48 50.70,67.15 50.95,67.89 51.45,68.48 51.78,68.98 52.37,68.65 52.44,68.15 52.28,67.98 52.37,67.82"
     id="polyline50"
     style="stroke-width:0.28222222;stroke-miterlimit:10;stroke-dasharray:none" />
  <polyline
     stroke="black"
     stroke-width="0.07"
     fill="none"
     points="53.86,69.98 54.69,70.15 54.94,70.56 55.43,71.05 56.02,71.31 55.93,71.89 55.10,72.31 54.60,72.72 54.03,72.64 53.77,73.14 53.27,73.22 52.86,72.55 52.78,71.39 52.53,70.98 52.86,70.15 53.27,69.81 53.86,69.98"
     id="polyline52"
     style="stroke-width:0.28222222;stroke-miterlimit:10;stroke-dasharray:none" />
  <polyline
     stroke="black"
     stroke-width="0.07"
     fill="none"
     points="39.98,65.23 39.90,65.32"
     id="polyline54"
     style="stroke-width:0.28222222;stroke-miterlimit:10;stroke-dasharray:none" />
  <polyline
     stroke="black"
     stroke-width="0.07"
     fill="none"
     points="43.14,64.82 43.56,64.40 43.39,64.07 42.97,63.90 42.14,64.07 41.81,64.57 42.40,64.65 42.47,64.90 43.06,64.82 43.47,64.82 43.14,64.82"
     id="polyline56"
     style="stroke-width:0.28222222;stroke-miterlimit:10;stroke-dasharray:none" />
  <polyline
     stroke="black"
     stroke-width="0.07"
     fill="none"
     points="41.31,64.73 40.81,65.06"
     id="polyline58"
     style="stroke-width:0.28222222;stroke-miterlimit:10;stroke-dasharray:none" />
  <polyline
     stroke="black"
     stroke-width="0.07"
     fill="none"
     points="50.28,67.32 49.38,66.82"
     id="polyline60"
     style="stroke-width:0.28222222;stroke-miterlimit:10;stroke-dasharray:none" />
  <polyline
     stroke="black"
     stroke-width="0.07"
     fill="none"
     points="44.53,18.16 43.89,17.84 43.31,17.84 42.73,18.01 41.98,18.17 40.81,18.01 40.98,17.34 40.48,16.84 40.31,16.18 39.82,15.60 39.90,15.10 39.74,14.18 39.48,14.35 39.07,14.44 38.74,14.68 38.65,14.18 38.82,12.94 39.41,11.68 39.15,11.44 38.91,11.35 38.49,10.94 38.32,10.28 37.91,9.61 37.41,9.11 37.25,8.28 37.32,6.78 37.43,4.83 35.99,4.53 35.24,8.12 34.75,10.25 34.31,11.91 31.84,22.50 37.61,23.95 43.41,25.00 44.53,18.16"
     id="polyline62"
     style="stroke-width:0.28222222;stroke-miterlimit:10;stroke-dasharray:none" />
  <polyline
     stroke="black"
     stroke-width="0.07"
     fill="none"
     points="90.66,37.56 90.08,37.98 89.99,38.56 89.50,38.81 89.42,39.31 88.80,39.87 87.96,40.57 87.50,40.23 86.84,39.64 87.00,39.47 87.17,38.97 86.43,38.40 85.76,37.90 85.10,37.07 85.10,36.40 85.34,35.90 85.26,35.31 84.27,35.24 83.35,34.24 82.77,33.48 82.52,32.65 82.20,31.51 83.10,30.99 82.94,29.91 83.27,29.58 82.77,28.99 83.18,28.66 83.94,28.32 84.43,27.75 84.77,27.08 84.43,26.58 83.85,25.75 83.51,25.16 89.33,25.00 89.50,26.13 90.16,27.29 90.33,27.66 90.49,30.15 90.58,32.41 90.66,33.74 90.25,34.57 90.42,35.07 90.58,35.65 90.16,36.48 90.82,36.57 91.16,37.40 90.66,37.56"
     id="polyline64"
     style="stroke-width:0.28222222;stroke-miterlimit:10;stroke-dasharray:none" />
  <polyline
     stroke="black"
     stroke-width="0.07"
     fill="none"
     points="90.16,27.29 90.66,27.46 91.41,27.20 91.66,26.46 95.40,26.58 96.56,33.07 96.56,33.82 96.06,34.15 95.57,34.90 95.23,35.40 94.65,35.48 94.48,36.73 93.90,37.07 93.48,36.64 92.74,36.98 92.41,37.31 91.16,37.40 90.82,36.57 90.16,36.48 90.58,35.65 90.42,35.07 90.25,34.57 90.66,33.74 90.58,32.41 90.49,30.15 90.33,27.66 90.16,27.29"
     id="polyline66"
     style="stroke-width:0.28222222;stroke-miterlimit:10;stroke-dasharray:none" />
  <polyline
     stroke="black"
     stroke-width="0.07"
     fill="none"
     points="73.38,30.49 72.80,26.75 72.22,25.66 71.97,23.25 72.33,23.00 82.37,23.17 83.35,24.83 83.85,25.75 84.43,26.58 84.77,27.08 84.43,27.75 83.94,28.32 83.18,28.66 82.77,28.99 83.27,29.58 82.94,29.91 83.10,30.99 82.17,31.52 82.02,31.24 81.61,30.65 80.52,30.99 73.63,31.24 73.38,30.49"
     id="polyline68"
     style="stroke-width:0.28222222;stroke-miterlimit:10;stroke-dasharray:none" />
  <polyline
     stroke="black"
     stroke-width="0.07"
     fill="none"
     points="76.16,35.04 75.96,34.90 75.30,33.65 75.68,33.32 75.63,32.91 60.84,32.32 60.42,40.23 76.16,40.80 76.20,35.45 76.16,35.04"
     id="polyline70"
     style="stroke-width:0.28222222;stroke-miterlimit:10;stroke-dasharray:none" />
  <polyline
     stroke="black"
     stroke-width="0.07"
     fill="none"
     points="99.89,39.73 100.55,39.14 101.29,38.90 101.38,38.31 102.29,37.48 101.88,36.40 101.36,34.96 100.96,34.57 100.13,34.40 99.06,34.65 97.56,34.31 96.97,33.82 96.56,33.82 96.06,34.15 95.57,34.90 95.23,35.40 94.65,35.48 94.48,36.73 93.90,37.07 93.48,36.64 92.74,36.98 92.41,37.31 92.15,37.31 90.66,37.56 90.08,37.98 89.99,38.56 89.50,38.81 89.42,39.31 88.42,40.20 87.98,40.56 87.55,41.39 88.75,41.80 89.83,41.23 90.75,41.14 93.98,40.73 99.72,40.06 99.89,39.73"
     id="polyline72"
     style="stroke-width:0.28222222;stroke-miterlimit:10;stroke-dasharray:none" />
  <polyline
     stroke="black"
     stroke-width="0.07"
     fill="none"
     points="87.76,57.94 87.50,56.70 87.09,56.70 83.35,56.70 83.18,55.54 83.77,54.70 83.94,54.12 84.77,53.54 84.35,52.71 83.94,51.29 77.37,51.54 77.46,52.21 77.46,54.20 78.29,55.20 78.70,56.20 78.86,57.20 78.62,58.11 78.12,58.94 78.12,59.53 78.20,60.11 79.12,59.74 80.03,60.24 81.35,60.41 82.52,60.24 83.68,60.15 83.68,60.65 84.51,60.98 85.51,61.65 85.76,61.07 86.50,61.15 86.84,60.90 87.26,60.82 88.42,61.15 88.92,61.74 89.25,61.48 89.42,60.98 89.09,60.90 88.59,60.41 88.00,60.07 88.33,59.57 88.75,59.32 88.75,58.74 88.26,58.91 87.83,59.65 87.67,59.32 87.83,58.74 87.50,58.58 87.09,58.82 86.17,58.58 87.26,58.24 88.26,58.41 87.76,57.94"
     id="polyline74"
     style="stroke-width:0.28222222;stroke-miterlimit:10;stroke-dasharray:none" />
  <polyline
     stroke="black"
     stroke-width="0.07"
     fill="none"
     points="121.82,17.51 119.90,12.52 120.07,12.23 120.40,11.15 120.57,9.82 120.40,8.07 121.06,7.49 120.99,5.66 121.65,5.33 122.39,5.99 123.22,5.41 123.81,5.24 124.48,6.16 124.89,7.74 124.97,8.90 125.05,9.73 125.38,10.15 126.05,9.82 126.30,10.40 126.97,11.23 127.47,11.40 127.71,11.73 127.30,12.06 126.55,12.06 125.47,13.06 125.31,12.65 125.14,13.15 124.48,13.06 124.55,13.98 123.98,14.56 122.98,15.64 122.32,16.64 122.06,18.05 121.82,17.51"
     id="polyline76"
     style="stroke-width:0.28222222;stroke-miterlimit:10;stroke-dasharray:none" />
  <polyline
     stroke="black"
     stroke-width="0.07"
     fill="none"
     points="112.10,30.86 112.60,31.79 112.44,33.28 114.42,34.61 114.58,34.45 114.42,34.03 113.42,33.19 114.34,33.53 113.75,32.95 113.75,32.20 113.59,31.20 113.51,30.29 113.75,30.29 113.92,31.29 114.17,31.95 114.09,32.78 114.58,32.62 114.92,32.95 115.50,33.62 115.42,34.28 115.34,35.61 115.67,35.28 116.08,34.36 116.17,33.36 116.67,32.36 116.67,31.91 114.92,31.91 114.10,28.70 107.10,30.12 107.11,31.41 109.76,30.12 109.98,30.53 110.91,31.19 111.52,31.41 112.10,30.86"
     id="polyline78"
     style="stroke-width:0.28222222;stroke-miterlimit:10;stroke-dasharray:none" />
  <polyline
     stroke="black"
     stroke-width="0.07"
     fill="none"
     points="122.06,19.01 118.90,19.26 117.33,19.41 117.41,22.26 120.82,21.09 121.53,21.31 121.90,21.63 122.73,21.97 123.06,21.63 123.72,21.63 124.48,21.30 124.48,20.88 123.89,20.21 124.22,20.64 124.06,21.14 123.39,21.05 123.15,20.71 122.56,20.05 122.23,19.05 122.06,19.01"
     id="polyline80"
     style="stroke-width:0.28222222;stroke-miterlimit:10;stroke-dasharray:none" />
  <polyline
     stroke="black"
     stroke-width="0.07"
     fill="none"
     points="84.27,14.68 86.50,15.18 88.33,16.01 88.92,17.51 88.83,19.05 89.25,18.05 89.58,16.98 89.92,16.06 90.33,15.98 90.82,16.55 91.08,15.98 91.99,15.72 92.58,15.22 93.41,15.15 94.58,15.66 95.28,15.09 96.31,15.06 96.64,14.81 96.14,14.72 95.48,14.72 94.98,14.31 94.65,14.06 93.82,13.98 93.74,13.48 93.24,13.23 92.98,13.23 92.08,13.39 91.66,13.56 91.08,13.81 90.49,14.15 89.92,14.15 89.09,14.15 88.50,13.48 88.17,13.48 87.42,13.56 87.17,13.23 87.34,12.65 87.83,12.32 87.83,11.82 87.26,12.06 86.26,12.89 85.43,13.73 84.60,14.22 83.77,14.39 84.27,14.68"
     id="polyline82"
     style="stroke-width:0.28222222;stroke-miterlimit:10;stroke-dasharray:none" />
  <polyline
     stroke="black"
     stroke-width="0.07"
     fill="none"
     points="95.39,26.57 91.66,26.46 92.15,25.30 92.15,24.21 91.82,22.63 91.32,21.38 91.66,20.05 92.24,18.64 92.82,17.81 93.07,18.05 93.65,17.22 94.07,16.31 94.57,15.89 95.40,15.98 96.06,16.48 96.90,16.81 97.30,16.98 97.39,18.14 97.47,19.14 97.14,19.88 96.81,20.64 96.81,21.30 97.23,21.38 97.39,20.97 97.47,20.47 98.06,20.14 98.80,19.88 99.06,20.05 99.22,20.80 99.55,21.38 99.80,21.88 100.05,22.47 99.30,23.21 99.13,23.96 98.72,24.30 98.56,25.21 98.06,25.96 98.14,26.46 97.60,26.31 95.39,26.57"
     id="polyline84"
     style="stroke-width:0.28222222;stroke-miterlimit:10;stroke-dasharray:none" />
  <polyline
     stroke="black"
     stroke-width="0.07"
     fill="none"
     points="72.30,22.67 72.22,18.67 71.64,18.01 71.72,17.26 72.14,16.60 71.97,15.77 71.72,14.18 71.55,12.77 71.64,11.85 70.98,10.61 70.98,8.69 72.51,8.66 74.67,8.57 74.92,8.49 74.92,7.74 75.17,7.74 75.42,8.57 75.75,9.23 76.58,9.65 77.24,9.82 77.83,9.99 77.74,9.38 79.62,9.38 79.12,9.90 79.86,10.15 80.61,10.40 80.86,10.73 83.27,10.82 84.35,10.73 84.60,10.82 83.02,11.82 81.52,12.89 80.86,13.39 80.28,14.27 80.36,15.60 80.45,15.84 79.69,16.51 79.28,16.84 79.28,17.43 79.36,18.10 79.53,18.51 79.36,19.84 79.69,20.34 81.11,20.76 81.61,21.09 81.94,21.76 82.35,22.00 82.35,22.92 82.44,23.17 72.30,23.00 72.30,22.67"
     id="polyline86"
     style="stroke-width:0.28222222;stroke-miterlimit:10;stroke-dasharray:none" />
  <polyline
     stroke="black"
     stroke-width="0.07"
     fill="none"
     points="85.67,45.96 85.01,46.46 85.34,47.29 84.60,48.21 84.01,49.21 83.94,50.12 83.97,51.31 84.35,52.71 84.77,53.54 83.94,54.12 83.77,54.70 83.18,55.54 83.35,56.70 87.09,56.70 87.50,56.70 87.76,57.94 88.54,57.58 89.67,57.24 90.66,57.37 90.42,55.54 90.42,45.63 89.09,45.63 85.76,45.72 85.67,45.96"
     id="polyline88"
     style="stroke-width:0.28222222;stroke-miterlimit:10;stroke-dasharray:none" />
  <polyline
     stroke="black"
     stroke-width="0.07"
     fill="none"
     points="87.26,41.89 86.67,42.56 86.67,43.30 85.67,43.47 85.26,43.13 85.51,42.72 85.76,41.80 76.20,42.22 76.16,34.99 75.96,34.90 75.30,33.67 75.68,33.30 75.61,32.92 73.63,31.24 80.52,30.99 81.61,30.65 82.17,31.52 82.52,32.65 82.77,33.48 83.35,34.24 84.27,35.24 85.26,35.31 85.34,35.90 85.10,36.40 85.10,37.07 85.76,37.90 86.43,38.40 87.17,38.97 87.00,39.47 86.84,39.64 87.56,40.26 87.97,40.58 87.26,41.89"
     id="polyline90"
     style="stroke-width:0.28222222;stroke-miterlimit:10;stroke-dasharray:none" />
  <polyline
     stroke="black"
     stroke-width="0.07"
     fill="none"
     points="37.32,6.78 37.25,8.28 37.41,9.11 37.91,9.61 38.32,10.28 38.49,10.94 38.91,11.35 39.15,11.44 39.41,11.68 38.82,12.94 38.65,14.18 38.74,14.68 39.07,14.44 39.48,14.35 39.74,14.18 39.90,15.10 39.82,15.60 40.31,16.18 40.48,16.84 40.98,17.34 40.81,18.01 41.98,18.17 42.73,18.01 43.31,17.84 43.89,17.84 44.56,18.17 44.72,17.01 57.86,18.55 58.71,8.05 53.82,7.57 49.92,7.16 46.43,6.66 42.94,5.90 40.03,5.41 37.46,4.83 37.32,6.78"
     id="polyline92"
     style="stroke-width:0.28222222;stroke-miterlimit:10;stroke-dasharray:none" />
  <polyline
     stroke="black"
     stroke-width="0.07"
     fill="none"
     points="72.80,26.75 73.38,30.52 73.66,31.25 75.58,32.91 74.65,32.86 60.84,32.32 61.01,29.58 57.02,29.26 57.44,23.93 68.15,24.42 69.15,25.16 69.65,25.16 69.89,24.83 70.55,25.00 71.64,25.75 72.30,26.16 72.80,26.75"
     id="polyline94"
     style="stroke-width:0.28222222;stroke-miterlimit:10;stroke-dasharray:none" />
  <polyline
     stroke="black"
     stroke-width="0.07"
     fill="none"
     points="32.31,40.76 27.69,33.98 24.53,28.82 26.54,21.29 37.58,23.92 34.59,39.56 34.26,39.89 33.67,39.40 33.17,39.81 33.00,41.80 32.31,40.76"
     id="polyline96"
     style="stroke-width:0.28222222;stroke-miterlimit:10;stroke-dasharray:none" />
  <polyline
     stroke="black"
     stroke-width="0.07"
     fill="none"
     points="122.06,19.01 122.05,18.10 119.90,12.52 118.90,12.82 119.24,13.48 119.07,14.85 118.66,15.77 118.66,17.10 118.90,18.43 118.90,19.25 122.06,19.01"
     id="polyline98"
     style="stroke-width:0.28222222;stroke-miterlimit:10;stroke-dasharray:none" />
  <polyline
     stroke="black"
     stroke-width="0.07"
     fill="none"
     points="115.50,29.66 115.08,28.75 115.50,28.25 115.84,27.33 114.92,26.99 114.92,26.33 115.25,24.42 115.01,24.09 117.00,24.92 117.33,25.21 117.24,26.21 117.83,26.54 117.83,27.79 117.50,28.79 116.67,30.03 115.50,29.87 115.50,29.66"
     id="polyline100"
     style="stroke-width:0.28222222;stroke-miterlimit:10;stroke-dasharray:none" />
  <polyline
     stroke="black"
     stroke-width="0.07"
     fill="none"
     points="49.04,53.48 45.43,53.21 45.32,53.95 43.64,53.78 45.93,38.94 58.17,40.19 58.20,41.62 57.35,53.62 49.12,53.04 49.04,53.48"
     id="polyline102"
     style="stroke-width:0.28222222;stroke-miterlimit:10;stroke-dasharray:none" />
  <polyline
     stroke="black"
     stroke-width="0.07"
     fill="none"
     points="105.37,23.42 105.28,24.33 105.94,24.33 113.68,22.76 115.01,24.09 117.33,25.10 117.40,22.22 117.33,19.43 116.08,17.01 115.84,14.44 114.42,14.56 113.18,14.81 112.35,15.22 111.02,17.05 111.10,18.31 111.26,19.14 110.60,19.38 110.10,19.88 109.19,20.14 107.77,20.21 106.03,20.64 106.03,21.55 106.53,22.13 106.03,22.63 105.37,23.38 105.37,23.42"
     id="polyline104"
     style="stroke-width:0.28222222;stroke-miterlimit:10;stroke-dasharray:none" />
  <polyline
     stroke="black"
     stroke-width="0.07"
     fill="none"
     points="115.91,37.48 115.42,37.48 112.51,38.14 108.94,38.97 105.78,39.14 104.93,39.27 104.04,39.83 102.62,40.73 101.96,41.30 101.38,41.30 101.05,42.06 100.13,42.63 99.46,42.97 98.97,43.30 98.63,44.30 98.47,44.76 101.38,44.39 102.12,43.72 103.04,43.72 105.70,43.47 106.20,43.89 109.02,43.80 111.68,45.63 111.93,45.76 112.18,45.51 112.85,45.34 112.85,44.76 113.18,43.84 113.92,42.85 115.25,42.60 116.00,42.01 115.75,41.60 114.84,41.85 115.25,41.35 115.34,40.85 114.42,40.68 114.92,40.52 115.84,40.77 116.25,40.18 116.67,39.52 117.24,39.77 117.08,40.94 117.41,40.44 117.50,39.77 116.58,38.52 116.00,38.61 115.50,39.11 114.75,39.27 114.67,38.85 115.25,38.94 116.00,38.35 116.33,38.02 116.25,37.35 115.91,37.48"
     id="polyline106"
     style="stroke-width:0.28222222;stroke-miterlimit:10;stroke-dasharray:none" />
  <polyline
     stroke="black"
     stroke-width="0.07"
     fill="none"
     points="71.97,15.77 71.72,14.18 71.55,12.77 71.64,11.85 70.98,10.61 70.98,8.69 68.11,8.57 64.97,8.45 61.78,8.28 58.70,8.07 58.09,16.10 72.02,16.74 71.97,15.77"
     id="polyline108"
     style="stroke-width:0.28222222;stroke-miterlimit:10;stroke-dasharray:none" />
  <polyline
     stroke="black"
     stroke-width="0.07"
     fill="none"
     points="101.62,33.90 102.54,32.41 103.54,31.91 104.12,30.82 104.21,28.49 103.82,24.46 103.29,24.87 101.62,25.96 100.96,26.37 100.22,26.79 99.96,26.46 99.46,26.46 98.72,26.54 98.06,26.46 97.64,26.33 95.40,26.58 96.56,33.07 96.56,33.82 96.97,33.82 97.56,34.31 99.06,34.65 100.13,34.40 100.90,34.55 101.36,34.97 101.62,33.90"
     id="polyline110"
     style="stroke-width:0.28222222;stroke-miterlimit:10;stroke-dasharray:none" />
  <polyline
     stroke="black"
     stroke-width="0.07"
     fill="none"
     points="58.17,40.17 76.16,40.79 76.46,49.79 75.87,49.71 75.21,49.12 74.30,49.05 73.55,49.29 72.30,49.38 71.47,49.29 70.72,49.38 70.22,49.05 69.65,49.05 68.82,49.12 68.48,48.79 68.15,48.55 67.32,48.46 66.66,48.21 66.07,47.88 65.49,47.63 64.57,47.46 64.66,41.72 58.18,41.64 58.17,40.17"
     id="polyline112"
     style="stroke-width:0.28222222;stroke-miterlimit:10;stroke-dasharray:none" />
  <polyline
     stroke="black"
     stroke-width="0.07"
     fill="none"
     points="21.92,8.82 21.51,9.23 21.51,10.15 20.68,11.40 20.59,11.98 20.75,12.39 20.34,12.82 20.09,13.32 20.01,14.22 19.59,14.89 19.18,15.15 19.42,15.56 18.68,15.89 18.52,16.64 18.35,17.22 18.59,17.39 18.26,17.89 18.26,18.64 18.57,19.23 26.57,21.28 31.82,22.52 34.09,13.04 34.33,11.92 33.26,11.85 32.43,11.68 31.60,11.52 30.18,11.44 29.77,11.61 29.02,11.35 28.52,11.44 27.78,11.44 27.02,11.19 26.61,11.27 26.36,11.11 25.86,10.94 25.19,11.11 24.20,11.11 23.70,10.28 23.95,9.11 23.79,8.78 22.46,8.36 21.92,8.82"
     id="polyline114"
     style="stroke-width:0.28222222;stroke-miterlimit:10;stroke-dasharray:none" />
  <polyline
     stroke="black"
     stroke-width="0.07"
     fill="none"
     points="114.84,28.58 104.70,30.58 103.78,24.59 105.37,23.42 105.28,24.33 105.94,24.33 113.68,22.76 114.95,24.02 115.25,24.42 114.92,26.33 114.92,26.99 115.84,27.33 115.50,28.25 114.84,28.58"
     id="polyline116"
     style="stroke-width:0.28222222;stroke-miterlimit:10;stroke-dasharray:none" />
  <polyline
     stroke="black"
     stroke-width="0.07"
     fill="none"
     points="120.82,22.50 120.82,21.09 121.06,21.17 121.56,21.34 121.90,21.63 121.82,22.63 121.56,22.97 120.73,22.97 120.82,22.50"
     id="polyline118"
     style="stroke-width:0.28222222;stroke-miterlimit:10;stroke-dasharray:none" />
  <polyline
     stroke="black"
     stroke-width="0.07"
     fill="none"
     points="111.68,45.63 109.02,43.80 106.20,43.89 105.70,43.47 103.04,43.72 102.12,43.72 101.38,44.39 101.05,44.46 100.72,45.22 101.13,45.63 101.71,45.72 102.12,46.13 103.29,47.63 104.21,47.71 105.37,49.21 106.03,50.21 106.44,50.79 107.29,50.63 108.22,51.10 107.92,50.43 107.61,50.00 107.86,50.00 108.60,49.83 108.60,49.33 109.02,49.26 109.60,49.00 109.93,48.17 110.60,47.93 110.60,47.43 111.02,46.34 111.93,45.74 111.68,45.63"
     id="polyline120"
     style="stroke-width:0.28222222;stroke-miterlimit:10;stroke-dasharray:none" />
  <polyline
     stroke="black"
     stroke-width="0.07"
     fill="none"
     points="72.30,26.16 71.64,25.75 70.55,25.00 69.89,24.83 69.65,25.16 69.15,25.16 68.15,24.42 57.47,23.89 58.09,16.10 71.88,16.77 71.72,17.26 71.64,18.01 72.22,18.67 72.30,22.67 72.30,23.09 71.97,23.25 72.22,25.66 72.80,26.75 72.30,26.16"
     id="polyline122"
     style="stroke-width:0.28222222;stroke-miterlimit:10;stroke-dasharray:none" />
  <polyline
     stroke="black"
     stroke-width="0.07"
     fill="none"
     points="89.09,45.63 90.48,45.55 98.43,44.76 98.63,44.30 98.97,43.30 99.46,42.97 100.13,42.63 101.05,42.06 101.38,41.30 101.96,41.30 102.62,40.73 104.91,39.28 103.21,39.56 99.72,40.06 93.98,40.73 90.75,41.14 89.83,41.23 88.80,41.81 87.59,41.39 86.67,42.56 86.76,43.63 86.42,44.88 85.87,45.40 85.75,45.68 86.84,45.71 89.09,45.63"
     id="polyline124"
     style="stroke-width:0.28222222;stroke-miterlimit:10;stroke-dasharray:none" />
  <polyline
     stroke="black"
     stroke-width="0.07"
     fill="none"
     points="77.53,60.24 76.79,60.74 76.29,60.32 76.29,59.91 75.71,60.24 75.96,60.74 75.79,61.15 75.13,61.98 74.13,62.57 73.14,63.07 72.30,62.98 71.72,62.90 71.88,63.31 72.22,63.64 72.14,63.98 71.14,64.14 70.64,64.40 70.72,64.73 70.48,65.06 69.98,65.14 69.98,65.56 69.72,66.14 69.23,66.40 69.15,66.81 69.81,66.81 69.98,67.31 69.65,67.97 69.89,68.47 70.06,69.47 69.98,70.13 70.14,70.51 68.82,70.13 67.40,69.89 66.66,69.56 65.57,68.56 65.07,67.31 64.41,66.06 64.16,65.14 63.58,64.57 63.17,64.14 62.75,63.64 62.75,62.90 62.25,62.31 62.25,61.65 61.58,61.07 60.84,60.48 60.25,59.91 59.09,59.74 57.93,59.41 57.10,59.74 56.93,60.90 56.52,61.24 56.02,61.48 55.19,60.98 54.03,60.07 53.44,59.41 53.20,58.24 52.44,57.16 52.37,56.49 51.11,55.58 50.95,55.08 49.95,53.99 49.03,53.47 49.09,53.06 57.35,53.62 58.18,41.64 64.66,41.72 64.57,47.46 65.49,47.63 66.07,47.88 66.66,48.21 67.32,48.46 68.15,48.55 68.48,48.79 68.82,49.12 69.65,49.05 70.22,49.05 70.72,49.38 71.47,49.29 72.30,49.38 73.55,49.29 74.30,49.05 75.21,49.12 75.87,49.71 76.46,49.79 77.12,50.04 77.46,52.21 77.46,54.20 78.29,55.20  78.70,56.20 78.86,57.20 78.62,58.11 78.12,58.94 78.12,59.53 78.20,60.11 77.53,60.24"
     id="polyline126"
     style="stroke-width:0.28222222;stroke-miterlimit:10;stroke-dasharray:none" />
  <polyline
     stroke="black"
     stroke-width="0.07"
     fill="none"
     points="119.19,13.83 119.07,14.85 118.66,15.77 118.66,17.10 118.90,18.43 118.89,19.27 117.30,19.42 116.08,17.01 115.84,14.44 119.19,13.83"
     id="polyline128"
     style="stroke-width:0.28222222;stroke-miterlimit:10;stroke-dasharray:none" />
  <polyline
     stroke="black"
     stroke-width="0.07"
     fill="none"
     points="111.36,31.45 112.10,30.86 112.60,31.79 112.44,33.28 113.18,33.95 114.17,34.95 114.67,35.45 114.25,35.69 113.34,35.69 114.17,36.19 115.17,36.44 115.84,36.69 116.25,37.35 115.42,37.48 112.51,38.14 108.94,38.97 105.78,39.14 103.21,39.56 99.72,40.06 99.89,39.73 100.55,39.14 101.29,38.90 101.38,38.31 102.29,37.48 102.62,37.56 103.78,37.81 104.70,37.48 105.61,36.81 106.20,36.07 106.53,34.81 106.94,34.07 107.44,33.48 108.10,33.57 108.27,32.98 108.60,32.24 109.36,31.15 109.85,30.41 111.10,31.32 111.52,31.41 111.36,31.45"
     id="polyline130"
     style="stroke-width:0.28222222;stroke-miterlimit:10;stroke-dasharray:none" />
  <polyline
     stroke="black"
     stroke-width="0.07"
     fill="none"
     points="25.66,4.07 25.74,4.41 25.24,5.00 24.83,5.57 24.74,5.99 24.83,6.33 24.83,6.66 25.41,6.49 25.66,6.07 26.07,5.66 26.16,5.00 26.24,4.33 25.83,4.33 25.74,3.91 25.90,3.58 26.32,3.08 26.32,2.17 26.90,2.00 29.73,2.74 31.72,3.41 34.63,4.16 35.98,4.53 34.75,10.28 34.58,11.02 34.32,11.92 33.26,11.85 32.43,11.68 31.60,11.52 30.18,11.44 29.77,11.61 29.02,11.35 28.52,11.44 27.78,11.44 27.02,11.19 26.61,11.27 26.36,11.11 25.86,10.94 25.19,11.11 24.20,11.11 23.70,10.28 23.95,9.11 23.79,8.78 22.75,8.43 22.25,7.99 22.25,7.24 22.58,6.40 22.25,6.07 22.41,4.91 22.00,3.41 22.75,2.17 24.08,3.50 24.74,3.33 24.74,3.74 25.57,3.91 25.66,4.07"
     id="polyline132"
     style="stroke-width:0.28222222;stroke-miterlimit:10;stroke-dasharray:none" />
  <polyline
     stroke="black"
     stroke-width="0.07"
     fill="none"
     points="89.92,16.06 89.58,16.98 89.25,18.05 88.83,19.05 88.83,19.47 89.33,18.64 89.99,17.89 90.33,17.47 89.99,18.22 89.66,18.97 89.33,20.21 89.42,21.05 89.25,22.30 89.25,23.80 89.42,24.63 89.33,25.00 83.51,25.16 83.35,24.83 82.66,23.69 82.38,23.09 82.35,22.00 81.94,21.76 81.61,21.09 81.11,20.76 79.69,20.34 79.36,19.84 79.53,18.51 79.36,18.10 79.28,17.43 79.28,16.84 79.69,16.51 80.45,15.84 80.36,15.60 80.28,14.27 80.61,14.22 81.44,14.15 82.11,13.98 82.61,13.89 82.77,13.73 83.02,14.22 83.77,14.39 84.60,14.22 84.27,14.68 86.50,15.18 88.33,16.01 88.92,17.51 89.92,16.06"
     id="polyline134"
     style="stroke-width:0.28222222;stroke-miterlimit:10;stroke-dasharray:none" />
  <polyline
     stroke="black"
     stroke-width="0.07"
     fill="none"
     points="57.02,29.24 57.90,18.54 44.72,17.01 42.97,27.66 51.38,28.67 57.02,29.24"
     id="polyline136"
     style="stroke-width:0.28222222;stroke-miterlimit:10;stroke-dasharray:none" />
  <polyline
     stroke="black"
     stroke-width="0.07"
     fill="none"
     points="45.95,38.96 35.09,37.10 37.61,23.94 43.41,25.00 42.95,27.65 47.14,28.16 45.95,38.96"
     id="polyline138"
     style="stroke-width:0.28222222;stroke-miterlimit:10;stroke-dasharray:none" />
  <polyline
     stroke="black"
     stroke-width="0.07"
     fill="none"
     points="101.88,36.40 102.30,37.49 103.78,37.81 104.70,37.48 105.61,36.81 106.20,36.07 106.53,34.81 106.94,34.07 107.44,33.48 108.10,33.57 108.27,32.98 108.60,32.24 109.36,31.15 109.85,30.41 111.10,31.32 111.52,31.41 110.85,30.82 109.77,30.15 107.11,31.41 107.11,30.11 104.72,30.55 104.26,28.15 104.12,30.82 103.54,31.91 102.54,32.41 101.62,33.90 101.38,34.90 101.88,36.40"
     id="polyline140"
     style="stroke-width:0.28222222;stroke-miterlimit:10;stroke-dasharray:none" />
</svg>
